<svg viewBox="0 0 91 63" aria-hidden="true" class="h-8 w-auto dark:hidden" fill="none" xmlns="http://www.w3.org/2000/svg"><g clip-path="url(#brand-logo-light-clip)"><path d="M88.1081 16.0978C86.1801 12.0833 83.898 8.9756 81.2619 6.77461C78.6257 4.57362 75.9111 2.97186 73.1181 1.96932C70.3243 0.966779 68.0422 0.387925 66.2719 0.232755C64.5016 0.0775843 63.5376 0 63.38 0H59.1385L55.1578 5.473L53.3109 8.01316L50.5738 11.775L50.3032 12.1468L43.9223 20.9181L40.6023 25.4835L36.9739 30.4702C36.9733 30.4715 36.973 30.4729 36.973 30.4744C36.973 30.4758 36.9733 30.4773 36.9739 30.4786L39.0818 33.4251L43.9223 40.1952L48.4704 46.5556L51.9208 51.3817L54.5377 55.0408L56.5016 57.789L59.3807 61.8148L60.2278 63H63.3768C63.5331 63 64.4971 62.9231 66.2687 62.7692C68.0403 62.6153 70.3224 62.036 73.1149 61.0313C75.9088 60.0297 78.6233 58.4279 81.2587 56.226C83.894 54.0242 86.1771 50.9164 88.1081 46.9028C90.036 42.8888 91 37.7545 91 31.5C91 25.2455 90.036 20.1115 88.1081 16.0978ZM71.1567 39.3324C70.2142 41.1528 69.1536 42.4874 67.975 43.3361C66.7963 44.1847 65.2649 44.7645 63.3806 45.0752H54.3044V17.9254H63.3774C65.2625 18.2349 66.794 18.8153 67.9718 19.6665C69.1495 20.5178 70.2101 21.8521 71.1535 23.6695C72.0961 25.4874 72.5674 28.0975 72.5674 31.5C72.5674 34.9025 72.097 37.5133 71.1561 39.3324H71.1567Z" fill="#003466"></path><path d="M54.3487 62.9025H36.1211C36.1194 62.9031 36.1176 62.9031 36.116 62.9025L32.5814 57.9554L23.6015 45.3971L22.0065 43.167L18.3157 38.0067C18.3152 38.0059 18.3145 38.0053 18.3136 38.0048C18.3128 38.0044 18.3118 38.0041 18.3109 38.0041C18.3099 38.0041 18.309 38.0044 18.3081 38.0048C18.3073 38.0053 18.3066 38.0059 18.3061 38.0067L14.792 42.4135C14.7911 42.4144 14.79 42.415 14.7887 42.4152C14.7875 42.4155 14.7862 42.4154 14.7851 42.4149C14.7839 42.4144 14.7829 42.4136 14.7822 42.4125C14.7815 42.4115 14.7811 42.4102 14.7811 42.4089V27.8728C14.7808 27.8715 14.7808 27.8702 14.7811 27.8689L22.1074 17.796L25.8168 12.6956L34.9804 0.100127C34.9812 0.0997259 34.9821 0.0995178 34.983 0.0995178C34.9839 0.0995178 34.9847 0.0997259 34.9855 0.100127H53.3211C53.3223 0.100127 53.3235 0.100464 53.3245 0.101099C53.3255 0.101734 53.3264 0.102642 53.3269 0.103722C53.3274 0.104802 53.3276 0.10601 53.3275 0.107212C53.3274 0.108415 53.327 0.109564 53.3263 0.11053L53.1618 0.336133L52.6335 1.05976L48.5944 6.61273L46.8284 9.04171L44.2147 12.6364L43.9576 12.992L37.8524 21.3816L34.6777 25.7468L31.2074 30.515C31.2067 30.5162 31.2064 30.5176 31.2064 30.5189C31.2064 30.5203 31.2067 30.5216 31.2074 30.5228L33.2253 33.3406L37.8524 39.8129L42.2013 45.8944L45.5007 50.5105L48.0025 54.009L49.881 56.6369L52.6335 60.4878L54.1887 62.6632L54.3539 62.894C54.3542 62.8949 54.3543 62.8959 54.3542 62.8968C54.354 62.8977 54.3537 62.8986 54.3532 62.8994C54.3528 62.9003 54.3521 62.9009 54.3513 62.9015C54.3506 62.902 54.3497 62.9023 54.3487 62.9025Z" fill="#ED1C24"></path><path d="M14.7811 7.51513V55.3015C14.7811 59.573 11.287 63.0455 7.06921 62.8628C5.16656 62.779 3.36932 61.9555 2.05227 60.5638C0.735214 59.1721 2.0749e-05 57.3198 0 55.3932V7.69523C0 3.43866 3.47034 -0.0279605 7.67716 0.133928C9.57059 0.208128 11.3635 1.01524 12.6856 2.38853C14.0076 3.76182 14.7578 5.59636 14.7811 7.51318V7.51513Z" fill="#ED1C24"></path></g><defs><clipPath id="brand-logo-light-clip"><rect width="91" height="63" fill="white"></rect></clipPath></defs></svg>